<?xml version="1.0" encoding="UTF-8"?>
<svg id="Layer_1" xmlns="http://www.w3.org/2000/svg" version="1.1" viewBox="0 0 2100 560">
  <!-- Generator: Adobe Illustrator 29.8.3, SVG Export Plug-In . SVG Version: 2.1.1 Build 3)  -->
  <path d="M1246.63,534.575c-2.031-4.048-1.272-8.854,2.278-14.43l114.635-173.091-109.325-170.818c-3.545-5.566-4.304-10.25-2.278-14.041,2.016-3.801,6.325-5.699,12.907-5.699h128.781c7.827.308,9.5,4.621,18.981,12.912l57.982,55.734,60.562-57.257c9.012-8.63,10.629-11.389,19.74-11.389h125.436c7.085,0,11.64,1.898,13.666,5.699,2.016,3.791,1.257,8.475-2.278,14.041l-108.566,170.059,113.121,173.851c3.53,6.079,4.422,11.014,2.657,14.805-1.78,3.801-6.207,5.694-13.287,5.694h-130.302c-10.829-.924-12.257-3.924-20.575-11.95l-60.176-57.525-60.42,57.332c-8.395,8.382-12.858,12.143-18.069,12.143h-131.809c-7.089,0-11.65-2.016-13.661-6.069" style="fill: #fff;"/>
  <polygon points="1425.024 7.585 1397.556 58.284 1470.529 127.977 1543.776 58.421 1516.035 7.585 1425.024 7.585" style="fill: #59be8f;"/>
  <path d="M431.277,159.909c-3.037-3.037-7.341-4.555-12.907-4.555h-79.715c-9.106,0-15.939,4.062-20.5,12.148l-13.775,24.511c-8.146-8.94-17.217-16.857-27.219-23.747-22.772-15.688-50.617-23.542-83.511-23.542-34.925,0-66.428,8.233-94.52,24.675-28.087,16.457-50.233,40.121-66.423,70.984-16.205,30.877-24.296,66.808-24.296,107.807,0,40.501,8.09,76.18,24.296,107.048,16.19,30.873,38.336,54.788,66.423,71.738,28.092,16.955,59.595,25.439,94.52,25.439,31.888,0,59.467-7.977,82.752-23.916,10.067-6.896,19.138-14.719,27.22-23.463l9.977,21.559c4.052,8.613,10.634,12.907,19.74,12.907h86.548c10.629,0,15.944-5.566,15.944-16.698V172.057c0-5.054-1.519-9.11-4.556-12.148ZM257.801,401.331c-9.367,5.063-20.115,7.593-32.263,7.593-11.65,0-22.279-2.529-31.888-7.593-9.619-5.048-17.083-12.148-22.398-21.258-5.315-9.106-7.967-19.479-7.967-31.124s2.652-22.136,7.967-31.508c5.315-9.358,12.779-16.571,22.398-21.634,9.609-5.058,20.238-7.593,31.888-7.593,12.148,0,22.896,2.535,32.263,7.593,9.357,5.063,16.57,12.276,21.638,21.634,5.053,9.372,7.592,19.873,7.592,31.508s-2.539,22.017-7.592,31.124c-5.068,9.11-12.281,16.21-21.638,21.258Z" style="fill: #fff;"/>
  <path d="M1214.627,203.011c-21.85-26.588-49.069-44.514-81.677-53.788-32.613-9.264-69.524-8.707-110.75,1.686-36.325,9.155-66.823,25.848-91.508,50.08-24.7,24.232-41.329,53.477-49.917,87.741-8.583,34.264-8.051,70.54,1.597,108.822,9.278,36.803,26.154,68.05,50.632,93.712,24.483,25.671,54.088,43.262,88.855,52.767,34.747,9.5,71.521,9.372,110.292-.399,53.008-13.361,94.505-38.174,124.515-74.45,2.81-3.313,3.791-6.695,2.929-10.131-.868-3.431-3.333-6.991-7.39-10.664l-65.112-59.536c-4.057-3.673-7.873-5.32-11.428-4.95-3.559.389-7.425,2.657-11.586,6.838-12.621,14.14-31.439,24.365-56.469,30.675-48.64,12.261-66.847-15.974-69.086-24.863l198.935-50.149c11.778-2.968,19.72-7.183,23.822-12.656,4.102-5.463,4.851-14.401,2.253-26.8l-.744-2.938c-10.264-40.733-26.332-74.4-48.162-100.998M1059.151,263.341c27.313-6.887,45.51,7.203,55.72,17.679,5.369,5.502.779,14.83-6.823,13.696-10.334-1.543-24.227-1.809-40.595,2.312-16.664,4.2-28.91,11.196-37.291,17.546-6.217,4.708-14.785-1.021-12.769-8.554,3.786-14.115,13.203-35.482,41.758-42.68" style="fill: #fff;"/>
  <path d="M1764.395,525.082c-32.908-18.222-58.841-42.764-77.822-73.646-18.976-30.862-28.467-64.782-28.467-101.728,0-37.449,9.491-71.861,28.467-103.251,18.981-31.375,45.041-56.179,78.201-74.4,33.135-18.217,69.958-27.333,110.459-27.333,40.994,0,78.063,9.116,111.223,27.333,33.14,18.222,59.082,43.025,77.817,74.4,18.72,31.39,28.087,65.802,28.087,103.251,0,36.946-9.367,70.866-28.087,101.728-18.734,30.882-44.795,55.424-78.201,73.646-33.401,18.217-70.604,27.332-111.598,27.332-40.496,0-77.186-9.116-110.08-27.332M1907.496,401.331c9.357-5.048,16.57-12.148,21.638-21.259,5.053-9.106,7.593-19.479,7.593-31.124s-2.539-22.136-7.593-31.508c-5.068-9.357-12.281-16.57-21.638-21.633-9.367-5.058-20.115-7.592-32.263-7.592-11.65,0-22.279,2.534-31.888,7.592-9.619,5.063-17.083,12.276-22.397,21.633-5.315,9.372-7.967,19.873-7.967,31.508s2.653,22.018,7.967,31.124c5.315,9.111,12.779,16.21,22.397,21.259,9.609,5.063,20.238,7.592,31.888,7.592,12.148,0,22.895-2.529,32.263-7.592" style="fill: #fff;"/>
  <path d="M920.451,444.241" style="fill: #fff; stroke: #e61c41; stroke-miterlimit: 10; stroke-width: 1.34px;"/>
  <path d="M625.005,164.945" style="stroke: #e61c41; stroke-miterlimit: 10; stroke-width: 1.34px;"/>
  <path d="M493.463,413.869" style="fill: #fff; stroke: #e61c41; stroke-miterlimit: 10; stroke-width: 1.34px;"/>
  <path d="M744.107,172.014" style="stroke: #e61c41; stroke-miterlimit: 10; stroke-width: 1.34px;"/>
  <path d="M464.172,534.575c-2.031-4.048-1.272-8.854,2.278-14.43l114.635-173.091-109.325-170.818c-3.545-5.566-4.304-10.25-2.278-14.041,2.016-3.801,6.325-5.699,12.907-5.699h128.781c7.827.308,9.5,4.621,18.981,12.912l57.982,55.734,60.562-57.257c9.012-8.63,10.629-11.389,19.74-11.389h125.436c7.085,0,11.64,1.898,13.666,5.699,2.016,3.791,1.257,8.475-2.278,14.041l-108.566,170.059,113.121,173.851c3.53,6.079,4.422,11.014,2.657,14.805-1.78,3.801-6.207,5.694-13.287,5.694h-130.302c-10.829-.924-12.257-3.924-20.575-11.95l-60.176-57.525-60.42,57.332c-8.395,8.382-12.858,12.143-18.069,12.143h-131.809c-7.089,0-11.65-2.016-13.661-6.069" style="fill: #fff;"/>
  <polygon points="642.657 7.585 615.189 58.284 688.162 127.977 761.409 58.421 733.668 7.585 642.657 7.585" style="fill: #59be8f;"/>
</svg>